<svg xmlns="http://www.w3.org/2000/svg" viewBox="0 0 184.51 211.75"><defs><style>.cls-1{fill:#fff;}</style></defs><title>Resurs 9</title><g id="Lager_2" data-name="Lager 2"><g id="Lager_1-2" data-name="Lager 1"><path class="cls-1" d="M5.62,1.18H21.84c12.78,0,19,8.24,19,17.58V46c0,9.06-6.25,17.76-19,17.49H5.62ZM18,51.2h2.63c7.61,0,7.71-6.07,7.71-8.61V22.2c0-2.62-.1-8.7-7.71-8.7H18Z"/><path class="cls-1" d="M80.75,18.4V46.31C80.75,57,74.4,64.7,63.08,64.7S45.4,57,45.4,46.31V18.4C45.4,7.61,51.84,0,63.08,0S80.75,7.61,80.75,18.4Zm-12.6,1.81c0-2.63-.27-7.7-5.07-7.7S58,17.58,58,20.21V44.5c0,2.62.27,7.7,5.08,7.7s5.07-5.08,5.07-7.7Z"/><path class="cls-1" d="M90.54,49.3h14.22V63.53H90.54Z"/><path class="cls-1" d="M11.15,88.16H0V75.29H35.43V88.16H24.29v49.48H11.15Z"/><path class="cls-1" d="M75.49,75.29v62.35H62.26V112.18H53v25.46H39.79V75.29H53V99.58h9.24V75.29Z"/><path class="cls-1" d="M79.93,137.64V75.29h35.25v12.6H93.07v12h19.31v12.6H93.07V125h22.11v12.69Z"/><path class="cls-1" d="M125,123.41H139.2v14.23H125Z"/><path class="cls-1" d="M40.78,149.41v62.34H28.18V177.23L23.2,196l-5-18.76v34.52H5.53V149.41H18.21l5,18.94,5-18.94Z"/><path class="cls-1" d="M69.42,211.75l-1.36-10.87h-10l-1.36,10.87H43.86l9.07-62.34h20.3l9.06,62.34ZM59.9,189.28h6.35l-3.17-26.73Z"/><path class="cls-1" d="M96.33,162.28H85.19V149.41h35.43v12.87H109.48v49.47H96.33Z"/><path class="cls-1" d="M160.68,149.41v62.34H147.45V186.29h-9.24v25.46H125V149.41h13.24v24.28h9.24V149.41Z"/><path class="cls-1" d="M170.29,197.53h14.22v14.22H170.29Z"/></g></g></svg>